<?xml version="1.0" encoding="UTF-8" standalone="no"?>
<svg
   xmlns:dc="http://purl.org/dc/elements/1.1/"
   xmlns:cc="http://creativecommons.org/ns#"
   xmlns:rdf="http://www.w3.org/1999/02/22-rdf-syntax-ns#"
   xmlns:svg="http://www.w3.org/2000/svg"
   xmlns="http://www.w3.org/2000/svg"
   xmlns:sodipodi="http://sodipodi.sourceforge.net/DTD/sodipodi-0.dtd"
   xmlns:inkscape="http://www.inkscape.org/namespaces/inkscape"
   width="207.81865"
   height="164.66911"
   id="svg2"
   sodipodi:version="0.32"
   inkscape:version="0.46+devel"
   sodipodi:docname="logoinf.svg"
   inkscape:output_extension="org.inkscape.output.svg.inkscape"
   version="1.0">
  <metadata
     id="metadata326">
    <rdf:RDF>
      <cc:Work
         rdf:about="">
        <dc:format>image/svg+xml</dc:format>
        <dc:type
           rdf:resource="http://purl.org/dc/dcmitype/StillImage" />
        <dc:title></dc:title>
      </cc:Work>
    </rdf:RDF>
  </metadata>
  <sodipodi:namedview
     pagecolor="#ffffff"
     bordercolor="#666666"
     borderopacity="1"
     objecttolerance="10"
     gridtolerance="10"
     guidetolerance="10"
     inkscape:pageopacity="0"
     inkscape:pageshadow="2"
     inkscape:window-width="1280"
     inkscape:window-height="1001"
     id="namedview324"
     showgrid="false"
     inkscape:zoom="0.66783066"
     inkscape:cx="-9.4761337"
     inkscape:cy="160.0808"
     inkscape:window-x="1280"
     inkscape:window-y="0"
     inkscape:current-layer="svg2" />
  <defs
     id="defs4">
    <inkscape:perspective
       sodipodi:type="inkscape:persp3d"
       inkscape:vp_x="0 : 353.383 : 1"
       inkscape:vp_y="0 : 1000 : 0"
       inkscape:vp_z="548.76703 : 353.383 : 1"
       inkscape:persp3d-origin="274.38351 : 235.58866 : 1"
       id="perspective328" />
    <marker
       id="ArrowEnd"
       viewBox="0 0 10 10"
       refX="0"
       refY="5"
       markerUnits="strokeWidth"
       markerWidth="4"
       markerHeight="3"
       orient="auto">
      <path
         d="M 0,0 10,5 0,10 z"
         id="path7" />
    </marker>
    <marker
       id="ArrowStart"
       viewBox="0 0 10 10"
       refX="10"
       refY="5"
       markerUnits="strokeWidth"
       markerWidth="4"
       markerHeight="3"
       orient="auto">
      <path
         d="M 10,0 0,5 10,10 z"
         id="path10" />
    </marker>
  </defs>
  <g
     id="g639"
     transform="translate(-132.69769,-445.25333)">
    <path
       id="path162"
       d="m 248.705,458.017 c -22.927,-1.293 -43.109,5.094 -48.577,9.275 -61.385,35.527 -40.421,153.348 128.168,127.458 -5.403,4.836 -43.225,17.982 -96.127,14.633 -98.173,-9.931 -122.825,-79.511 -77.73,-127.077 28.606,-27.482 67.4,-30.547 94.266,-24.289 l 0,0 0,0 z"
       style="fill:#0f2bff;stroke:none" />
    <path
       id="path164"
       d="m 205.136,483.368 c 0,-10.582 10.74,-19.16 23.988,-19.16 13.249,0 23.989,8.578 23.989,19.16 0,10.582 -10.74,19.16 -23.989,19.16 -13.248,0 -23.988,-8.578 -23.988,-19.16 l 0,0 0,0 z"
       style="fill:#ffa816;stroke:none" />
    <path
       id="path166"
       d="m 218.986,575.377 0,-70.29 0,0 c 6.112,2.388 14.2,2.317 20.614,0.404 l 0,0 0,43.742 0,0 c 1.227,0.724 6.04,3.1 12.176,3.702 37.167,3.644 60.579,-18.646 60.487,-44.819 -0.092,-26.173 -29.499,-46.86 -64.632,-52.583 -20.943,-4.551 -41.895,-3.093 -61.025,3.466 18.219,-10.203 45.181,-14.493 62.574,-13.64 51.477,2.526 91.201,34.877 91.336,73.429 0.136,38.551 -40.733,71.265 -90.844,66.178 -15.843,-1.608 -22.469,-5.238 -30.686,-9.589 l 0,0 0,0 z"
       style="fill:#ffa816;stroke:none" />
  </g>
</svg>
